# xmcd
#
# Track frame offsets:
#	150
#	19359
#	44167
#	78090
#	103834
#
# Disc length: 1575 seconds
#
# Revision: 0
# Processed by: cddbd v1.5.1PL2 Copyright (c) Steve Scherf et al.
# Submitted via: EasyCDDAExtractor 4.6.9.1
#
DISCID=3c062505
DTITLE=Dedringers - Definitely Purposely Infinite
DYEAR=2004
DGENRE=Country
TTITLE0=Crying For You
TTITLE1=Little White Lies
TTITLE2=Carson Judd
TTITLE3=I Ain't Bad
TTITLE4=Guardian Angel
EXTD=
EXTT0=
EXTT1=
EXTT2=
EXTT3=
EXTT4=
PLAYORDER=
